<svg fill="#000000" width="20px" height="20px" viewBox="0 0 1.2 1.2" id="facebook" data-name="Flat Color" xmlns="http://www.w3.org/2000/svg" class="icon flat-color"><path id="primary" d="M0.7 0.3h0.15a0.05 0.05 0 0 0 0.05 -0.05V0.15a0.05 0.05 0 0 0 -0.05 -0.05h-0.15a0.25 0.25 0 0 0 -0.25 0.25v0.15H0.35a0.05 0.05 0 0 0 -0.05 0.05v0.1a0.05 0.05 0 0 0 0.05 0.05h0.1v0.35a0.05 0.05 0 0 0 0.05 0.05h0.1a0.05 0.05 0 0 0 0.05 -0.05v-0.35h0.111a0.05 0.05 0 0 0 0.05 -0.038l0.025 -0.1a0.05 0.05 0 0 0 -0.05 -0.062H0.65V0.35a0.05 0.05 0 0 1 0.05 -0.05Z" style="fill: #1d1d1d;"/></svg>