<svg fill="#000000" width="40px" height="40px" viewBox="-0.125 -0.125 1.5 1.5" xmlns="http://www.w3.org/2000/svg" preserveAspectRatio="xMinYMin" class="jam jam-linkedin"><path d="M1.247 0.732v0.461h-0.267v-0.43c0 -0.108 -0.039 -0.182 -0.135 -0.182 -0.074 0 -0.118 0.05 -0.137 0.098 -0.007 0.017 -0.009 0.041 -0.009 0.065v0.449h-0.268s0.004 -0.729 0 -0.804h0.268v0.114l-0.002 0.003h0.002v-0.003c0.035 -0.055 0.099 -0.133 0.241 -0.133 0.176 0 0.308 0.115 0.308 0.362zM0.151 0.002C0.06 0.002 0 0.062 0 0.141c0 0.077 0.058 0.139 0.148 0.139h0.002c0.093 0 0.151 -0.062 0.151 -0.139C0.299 0.062 0.243 0.002 0.151 0.002zM0.016 1.194h0.267V0.389H0.016v0.804z"/></svg>