<svg fill="#1d1d1d" width="20px" height="20px" viewBox="0 0 1.5 1.5" id="twitter" data-name="Flat Color" xmlns="http://www.w3.org/2000/svg" class="icon flat-color"><path id="primary" d="M1.352 0.432a0.063 0.063 0 0 0 -0.052 -0.013 0.519 0.519 0 0 1 -0.069 0.011 0.281 0.281 0 0 0 -0.534 0.033c-0.171 0.042 -0.338 -0.129 -0.339 -0.131a0.063 0.063 0 0 0 -0.063 -0.017 0.063 0.063 0 0 0 -0.044 0.05 0.731 0.731 0 0 0 0.094 0.542A0.453 0.453 0 0 1 0.188 0.938a0.063 0.063 0 0 0 -0.056 0.091c0.012 0.023 0.129 0.221 0.592 0.221 0.365 0 0.5 -0.325 0.522 -0.524A0.25 0.25 0 0 0 1.375 0.481a0.063 0.063 0 0 0 -0.023 -0.049Z" style="fill: #1d1d1d;"/></svg>